<svg width="14" height="14" viewBox="0 0 14 14" fill="none" xmlns="http://www.w3.org/2000/svg">
<path d="M4.81996 8.63641H3.72905C3.40178 8.63641 3.18359 8.8546 3.18359 9.18187V10.2728C3.18359 10.6001 3.40178 10.8182 3.72905 10.8182H4.81996C5.14723 10.8182 5.36541 10.6001 5.36541 10.2728V9.18187C5.36541 8.8546 5.14723 8.63641 4.81996 8.63641Z" stroke="#9B9B9B" stroke-miterlimit="10" stroke-linecap="round" stroke-linejoin="round"/>
<path d="M10.2734 1V4.16364" stroke="#9B9B9B" stroke-miterlimit="10" stroke-linecap="round" stroke-linejoin="round"/>
<path d="M3.72656 1V4.16364" stroke="#9B9B9B" stroke-miterlimit="10" stroke-linecap="round" stroke-linejoin="round"/>
<path d="M10.8182 13H3.18182C1.98182 13 1 12.0182 1 10.8182V4.81823C1 3.61823 1.98182 2.63641 3.18182 2.63641H10.8182C12.0182 2.63641 13 3.61823 13 4.81823V10.8182C13 12.0182 12.0182 13 10.8182 13Z" stroke="#9B9B9B" stroke-miterlimit="10" stroke-linecap="round" stroke-linejoin="round"/>
</svg>
