<svg width="28" height="28" viewBox="0 0 28 28" fill="none" xmlns="http://www.w3.org/2000/svg">
<g clip-path="url(#clip0_787_1514)">
<path d="M6.9987 15.1668C9.57603 15.1668 11.6654 13.0775 11.6654 10.5002C11.6654 7.92283 9.57603 5.8335 6.9987 5.8335C4.42137 5.8335 2.33203 7.92283 2.33203 10.5002C2.33203 13.0775 4.42137 15.1668 6.9987 15.1668Z" stroke="white" stroke-miterlimit="10" stroke-linecap="round" stroke-linejoin="round"/>
<path d="M1.16797 20.9998C1.16797 17.7332 3.73464 15.1665 7.0013 15.1665C10.268 15.1665 12.8346 17.7332 12.8346 20.9998" stroke="white" stroke-miterlimit="10" stroke-linecap="round" stroke-linejoin="round"/>
<path d="M20.9987 20.9998C23.576 20.9998 25.6654 18.9105 25.6654 16.3332C25.6654 13.7558 23.576 11.6665 20.9987 11.6665C18.4214 11.6665 16.332 13.7558 16.332 16.3332C16.332 18.9105 18.4214 20.9998 20.9987 20.9998Z" stroke="white" stroke-miterlimit="10" stroke-linecap="round" stroke-linejoin="round"/>
<path d="M15.168 26.8333C15.168 23.5667 17.7346 21 21.0013 21C24.268 21 26.8346 23.5667 26.8346 26.8333" stroke="white" stroke-miterlimit="10" stroke-linecap="round" stroke-linejoin="round"/>
<path d="M17.5 8.1665C19.433 8.1665 21 6.5995 21 4.6665C21 2.73351 19.433 1.1665 17.5 1.1665C15.567 1.1665 14 2.73351 14 4.6665C14 6.5995 15.567 8.1665 17.5 8.1665Z" stroke="white" stroke-miterlimit="10" stroke-linecap="round" stroke-linejoin="round"/>
</g>
<defs>
<clipPath id="clip0_787_1514">
<rect width="28" height="28" fill="white"/>
</clipPath>
</defs>
</svg>
