<svg width="36" height="36" viewBox="0 0 36 36" fill="none" xmlns="http://www.w3.org/2000/svg">
<circle cx="18.0005" cy="18.0005" r="17.0005" fill="white" stroke="#CBCBCB" stroke-width="2"/>
<path d="M23.0909 23.6364H12.9091C11.3091 23.6364 10 22.3273 10 20.7273V14.9091C10 13.3091 11.3091 12 12.9091 12H23.0909C24.6909 12 26 13.3091 26 14.9091V20.7273C26 22.3273 24.6909 23.6364 23.0909 23.6364Z" stroke="#666565" stroke-width="2" stroke-miterlimit="10" stroke-linecap="round" stroke-linejoin="round"/>
<path d="M10.873 12.8726L16.764 18.7636C17.1276 19.1272 17.564 19.2727 18.0003 19.2727C18.4367 19.2727 18.873 19.1272 19.2367 18.7636L25.1276 12.8726" stroke="#666565" stroke-width="2" stroke-miterlimit="10" stroke-linecap="round" stroke-linejoin="round"/>
<path d="M24.6915 23.1274L19.7461 18.2546" stroke="#666565" stroke-width="2" stroke-miterlimit="10" stroke-linecap="round" stroke-linejoin="round"/>
<path d="M16.254 18.2546L11.3086 23.1274" stroke="#666565" stroke-width="2" stroke-miterlimit="10" stroke-linecap="round" stroke-linejoin="round"/>
</svg>
