<svg width="36" height="36" viewBox="0 0 36 36" fill="none" xmlns="http://www.w3.org/2000/svg">
<circle cx="18" cy="18" r="17" fill="white" stroke="#CBCBCB" stroke-width="2"/>
<path d="M10 21.3454C10 21.0545 10.0727 20.8363 10.2909 20.6182L11.1636 19.7455C11.8182 19.0909 12.2545 18.2909 12.4 17.3454L12.9091 14.2909C13.3455 11.8182 15.4545 10 18 10C20.5455 10 22.6545 11.8182 23.0909 14.2909L23.6 17.3454C23.7455 18.2182 24.1818 19.0909 24.8364 19.7455L25.7091 20.6182C25.9273 20.8363 26 21.0545 26 21.3454C26 21.9273 25.5636 22.3636 24.9818 22.3636H11.0182C10.4364 22.3636 10 21.9273 10 21.3454Z" stroke="#666565" stroke-width="2" stroke-miterlimit="10" stroke-linecap="round" stroke-linejoin="round"/>
<path d="M15.8164 24.5458C15.8164 24.5458 16.5437 26.0004 17.9982 26.0004C19.4528 26.0004 20.18 24.5458 20.18 24.5458" stroke="#666565" stroke-width="2" stroke-miterlimit="10" stroke-linecap="round" stroke-linejoin="round"/>
</svg>
