<svg width="28" height="28" viewBox="0 0 28 28" fill="none" xmlns="http://www.w3.org/2000/svg">
<path d="M15.1667 22.1665H8.16667C5.6 22.1665 3.5 20.0665 3.5 17.4998V5.83317C3.5 3.2665 5.6 1.1665 8.16667 1.1665H15.1667C17.7333 1.1665 19.8333 3.2665 19.8333 5.83317V17.4998C19.8333 20.0665 17.7333 22.1665 15.1667 22.1665Z" stroke="white" stroke-miterlimit="10" stroke-linecap="round" stroke-linejoin="round"/>
<path d="M19.8346 5.8335C22.4013 5.8335 24.5013 7.9335 24.5013 10.5002V22.1668C24.5013 24.7335 22.4013 26.8335 19.8346 26.8335H12.8346C10.268 26.8335 8.16797 24.7335 8.16797 22.1668" stroke="white" stroke-miterlimit="10" stroke-linecap="round" stroke-linejoin="round"/>
<path d="M8.16797 7H15.168" stroke="white" stroke-miterlimit="10" stroke-linecap="round" stroke-linejoin="round"/>
<path d="M8.16797 11.6665H15.168" stroke="white" stroke-miterlimit="10" stroke-linecap="round" stroke-linejoin="round"/>
<path d="M8.16797 16.3335H10.5013" stroke="white" stroke-miterlimit="10" stroke-linecap="round" stroke-linejoin="round"/>
</svg>
