<svg width="28" height="28" viewBox="0 0 28 28" fill="none" xmlns="http://www.w3.org/2000/svg">
<g clip-path="url(#clip0_787_1658)">
<path d="M26.8346 24.4999V15.9832C26.8346 14.6998 26.368 13.5333 25.4346 12.7166L14.818 2.09996C14.2347 1.51662 13.5346 1.2832 12.8346 1.2832C12.1346 1.2832 11.318 1.63329 10.8513 2.09996L1.98465 10.9666C1.40132 11.5499 1.16797 12.2499 1.16797 12.9499C1.16797 13.6499 1.51798 14.4666 1.98465 14.9333L12.6013 25.5499C13.5346 26.4833 14.7013 26.9499 15.868 26.9499H24.3846C25.7846 26.8332 26.8346 25.7832 26.8346 24.4999Z" stroke="white" stroke-linecap="round" stroke-linejoin="round"/>
<path d="M12.8929 5.8058L5.88086 12.8179L11.738 18.675L18.7501 11.6629L12.8929 5.8058Z" stroke="white" stroke-linecap="round" stroke-linejoin="round"/>
<path d="M19.8333 22.1667C21.122 22.1667 22.1667 21.122 22.1667 19.8333C22.1667 18.5447 21.122 17.5 19.8333 17.5C18.5447 17.5 17.5 18.5447 17.5 19.8333C17.5 21.122 18.5447 22.1667 19.8333 22.1667Z" stroke="white" stroke-linecap="round" stroke-linejoin="round"/>
</g>
<defs>
<clipPath id="clip0_787_1658">
<rect width="28" height="28" fill="white"/>
</clipPath>
</defs>
</svg>
