<svg width="28" height="28" viewBox="0 0 28 28" fill="none" xmlns="http://www.w3.org/2000/svg">
<path d="M23.6819 15.8665C23.4486 15.6332 23.3319 15.2833 23.3319 14.9333C23.3319 14.7 23.3319 14.3499 23.3319 14.1165C23.3319 13.8832 23.3319 13.5333 23.3319 13.2999C23.3319 12.9499 23.4486 12.5999 23.6819 12.3665L25.6652 10.3833C26.0152 10.0333 26.1319 9.44984 25.8986 8.98318L24.4986 6.5332C24.2652 6.06654 23.6819 5.8332 23.2152 5.94987L20.5319 6.76662C20.1819 6.88329 19.8319 6.76654 19.4819 6.5332C19.0152 6.1832 18.5486 5.94993 17.9652 5.71659C17.6152 5.59993 17.3819 5.24984 17.2652 4.89984L16.5652 2.21659C16.4486 1.74993 15.9819 1.2832 15.3986 1.2832H12.5986C12.0152 1.2832 11.5486 1.63326 11.4319 2.21659L10.7319 4.89984C10.6152 5.24984 10.3819 5.48326 10.0319 5.71659C9.44858 5.94993 8.98191 6.29987 8.51525 6.5332C8.16525 6.76654 7.81525 6.76662 7.46525 6.76662L4.78191 5.94987C4.31524 5.8332 3.73191 6.06654 3.49858 6.5332L2.09858 8.98318C1.86525 9.44984 1.86525 10.0333 2.33191 10.3833L4.31525 12.3665C4.54858 12.5999 4.66525 12.9499 4.66525 13.2999C4.66525 13.5333 4.66525 13.8832 4.66525 14.1165C4.66525 14.3499 4.66525 14.7 4.66525 14.9333C4.66525 15.2833 4.54858 15.6332 4.31525 15.8665L2.33191 17.85C1.98191 18.2 1.86525 18.7832 2.09858 19.2499L3.49858 21.6999C3.73191 22.1665 4.31524 22.3999 4.78191 22.2832L7.46525 21.4666C7.81525 21.3499 8.16525 21.4665 8.51525 21.6999C8.98191 22.0499 9.44858 22.2833 10.0319 22.5166C10.3819 22.6333 10.6152 22.9832 10.7319 23.3332L11.4319 26.0166C11.5486 26.4833 12.0152 26.9499 12.5986 26.9499H15.3986C15.9819 26.9499 16.4486 26.6 16.5652 26.0166L17.2652 23.3332C17.3819 22.9832 17.6152 22.75 17.9652 22.5166C18.5486 22.2833 19.0152 21.9332 19.4819 21.6999C19.8319 21.4665 20.1819 21.4666 20.5319 21.4666L23.2152 22.2832C23.6819 22.3999 24.2652 22.1665 24.4986 21.6999L25.8986 19.2499C26.1319 18.7832 26.1319 18.2 25.6652 17.85L23.6819 15.8665Z" stroke="white" stroke-miterlimit="10" stroke-linecap="round" stroke-linejoin="round"/>
<path d="M14 17.5C15.933 17.5 17.5 15.933 17.5 14C17.5 12.067 15.933 10.5 14 10.5C12.067 10.5 10.5 12.067 10.5 14C10.5 15.933 12.067 17.5 14 17.5Z" stroke="white" stroke-miterlimit="10" stroke-linecap="round" stroke-linejoin="round"/>
</svg>
